<svg width="56px" height="50px" viewBox="0 0 56 50" version="1.1" xmlns="http://www.w3.org/2000/svg" xmlns:xlink="http://www.w3.org/1999/xlink"><path fill="rgba(0,0,0,0.7)" fill-rule="evenodd" transform="translate(-41, -45)" d="M93.3202771,50.2986264 L43,50 C41.1997205,50.2986264 40,49.1125328 40,47.6493409 C40,46.1860936 41.1997205,45 42.6797229,45 L93.3202771,45 C94.8002235,45 96,46.1860383 96,47.6493409 C96,49.1125881 94.8001675,50.2986264 93.3202771,50.2986264 Z M90.3566898,71.3695529 L69.8952751,51.1406577 C69.8326917,51.0786744 69.7667496,51.0200671 69.6981766,50.9645035 C69.6682283,50.9401529 69.6366567,50.9191782 69.6060368,50.8963773 C69.5668522,50.867212 69.5283953,50.8372718 69.4876433,50.8102649 C69.450194,50.7855822 69.4113453,50.7641095 69.3729444,50.7414192 C69.3363908,50.7196697 69.3004529,50.6970347 69.2627237,50.6771116 C69.2233712,50.6562476 69.1827871,50.6385381 69.1425949,50.6197771 C69.1036343,50.6014588 69.0652333,50.5823658 69.0252091,50.5659291 C68.9860245,50.5499353 68.9458882,50.5370405 68.9061439,50.5229282 C68.8634326,50.5076538 68.8212252,50.4914386 68.7776184,50.4783224 C68.7377621,50.4665346 68.697234,50.4577905 68.6570418,50.4478289 C68.6125952,50.4366498 68.5687644,50.4243638 68.5234223,50.415509 C68.4767926,50.4064329 68.4297151,50.400954 68.3826376,50.3942576 C68.3431731,50.3886681 68.3042684,50.3811969 68.2642441,50.3773783 C68.0884172,50.3601669 67.9113588,50.3601669 67.7356439,50.3773783 C67.6955636,50.3811969 67.6566589,50.3887234 67.6171944,50.3942576 C67.5701169,50.400954 67.5230394,50.4064329 67.4762978,50.415509 C67.4310676,50.4243638 67.3872368,50.4367051 67.3427903,50.4478289 C67.3025421,50.4577905 67.2620699,50.4664792 67.2222136,50.4783224 C67.1784388,50.4914386 67.1363433,50.5076538 67.0935761,50.5229282 C67.0538318,50.5370405 67.0138075,50.5499352 66.9746789,50.5659291 C66.9345987,50.5823658 66.8961417,50.6016802 66.8571811,50.6198878 C66.8169329,50.6385381 66.7764608,50.6561923 66.7371082,50.6771116 C66.699435,50.6970348 66.6635532,50.7196697 66.6269435,50.7414192 C66.5885426,50.7641096 66.5496938,50.785527 66.5122446,50.8102649 C66.4714926,50.8372165 66.4330357,50.8671567 66.3938511,50.8963773 C66.3632312,50.9191783 66.3316036,50.9402084 66.3017113,50.9645036 C66.2330823,51.0200671 66.1671962,51.0786745 66.1045008,51.1406577 L45.6433102,71.3695529 C44.5968015,72.404175 44.5968015,74.0815965 45.6433102,75.1162186 C46.6898189,76.1508407 48.3864561,76.1508406 49.4330209,75.1162186 L65.3203051,59.4094436 L65.3203051,92.3507145 C65.3203051,93.813851 66.5200256,95 68.000028,95 C69.4800304,95 70.6798068,93.8137957 70.6798068,92.3507145 L70.6798068,59.4094436 L86.5670352,75.1162186 C87.0903175,75.633668 87.776104,75.8921713 88.4618905,75.8921713 C89.147733,75.8921713 89.8335195,75.633668 90.3568018,75.1162186 C91.4031985,74.0815965 91.4031985,72.404175 90.3566898,71.3695529 Z"></path></svg>