<svg width="62px" height="58px" viewBox="0 0 62 58" version="1.1" xmlns="http://www.w3.org/2000/svg" xmlns:xlink="http://www.w3.org/1999/xlink"><path fill="rgba(0,0,0,0.7)" fill-rule="evenodd" d="M2.89294531,25.7648362 C2.18173437,25.7648362 1.482125,25.4285313 1.04478125,24.8007109 C0.334484375,23.7811094 0.58521875,22.3787266 1.60489062,21.6684297 L30.7165859,1.38854688 C31.5136042,0.833395317 32.5768817,0.852304956 33.3536562,1.43544531 L60.3632891,21.7152578 C61.3570156,22.4614141 61.5576875,23.8718125 60.8116016,24.8655391 C60.0655156,25.8592656 58.6551172,26.0600078 57.6613203,25.3137813 L31.9532422,6.0113125 L4.17699219,25.3608203 C3.80054739,25.6240075 3.35226884,25.7648362 2.89294531,25.7648362 L2.89294531,25.7648362 Z M54.4466328,57.2246875 L38.7862109,57.2246875 C37.5435781,57.2246875 36.5362109,56.2173203 36.5362109,54.9746875 L36.5362109,39.2475391 L27.5082969,39.2475391 L27.5082969,54.9746875 C27.5082969,56.2173203 26.5009297,57.2246875 25.2582969,57.2246875 L9.26016406,57.2246875 C8.01753125,57.2246875 7.01016406,56.2173203 7.01016406,54.9746875 L7.01016406,28.0820547 C7.01016406,26.8394219 8.01753125,25.8320547 9.26016406,25.8320547 C10.5027969,25.8320547 11.5101641,26.8394219 11.5101641,28.0820547 L11.5101641,52.7246875 L23.0082969,52.7246875 L23.0082969,36.9975391 C23.0082969,35.7549063 24.0156641,34.7475391 25.2582969,34.7475391 L38.7862109,34.7475391 C40.0288437,34.7475391 41.0362109,35.7549063 41.0362109,36.9975391 L41.0362109,52.7246875 L52.1967031,52.7246875 L52.1967031,28.0820547 C52.1967031,26.8394219 53.2040703,25.8320547 54.4467031,25.8320547 C55.6893359,25.8320547 56.6967031,26.8394219 56.6967031,28.0820547 L56.6967031,54.9746875 C56.6967031,56.21725 55.6892656,57.2246875 54.4466328,57.2246875 Z"></path></svg>